# xmcd
#
# Track frame offsets: 
#        150
#        13720
#        30066
#        43778
#        58865
#        76799
#        92249
#        107249
#        125078
#        145815
#        161181
#        176004
#        190928
#        209671
#
# Disc length: 3027 seconds
#
# Revision: 4
# Processed by: cddbd v1.5.2PL0 Copyright (c) Steve Scherf et al.
# Submitted via: ExactAudioCopy v1.0b1
#
DISCID=c40bd10e
DTITLE=Various Artist - Wir dürfen träumen davon
DYEAR=2010
DGENRE=Deutscher Schlager
TTITLE0=Monika Martin - Mein Engel bist du
TTITLE1=Monika Martin - Vaterherz
TTITLE2=Monika Martin - Unendlich lang (Lingering On)
TTITLE3=Monika Martin - Eine neue Zärtlichkeit
TTITLE4=Monika Martin - Meine allerbeste Freundin
TTITLE5=Monika Martin - Wir zwei
TTITLE6=Monika Martin - Wie ein Fluss ist Deine Liebe
TTITLE7=Monika Martin - Ein Tropfen Zeit (The Water is Wide)
TTITLE8=Monika Martin - Das Lied der Liebe
TTITLE9=Monika Martin - Gott, war das schön
TTITLE10=Monika Martin - Sehnsucht
TTITLE11=Monika Martin - Rosen lügen nicht
TTITLE12=Monika Martin - Das will ich wieder und wieder erleben
TTITLE13=Monika Martin and Elisa de Man - Wir dürfen träumen davon
EXTD=
EXTT0=
EXTT1=
EXTT2=
EXTT3=
EXTT4=
EXTT5=
EXTT6=
EXTT7=
EXTT8=
EXTT9=
EXTT10=
EXTT11=
EXTT12=
EXTT13=
PLAYORDER=
